# xmcd CD database file
#
# Track frame offsets:
#	150
#	49620
#	99169
#	130642
#	177424
#	206270
#	241668
#	275289
#
# Disc length: 4273 seconds
#
# Revision: 0
# Processed by: cddbd v1.5.2PL0 Copyright (c) Steve Scherf et al.
# Submitted via: CDex 1.70beta2
#
DISCID=5b10af08
DTITLE=Jimmy Smith - Hard Bop vol. 2
DYEAR=1957
DGENRE=Jazz
TTITLE0=After Hours
TTITLE1=My Funny Valentine
TTITLE2=Slightly Monkish
TTITLE3=Laura
TTITLE4=Just Friends
TTITLE5=Imagination
TTITLE6=Lover Man
TTITLE7=Body And Soul
EXTD=YEAR: 1957
EXTT0=
EXTT1=
EXTT2=
EXTT3=
EXTT4=
EXTT5=
EXTT6=
EXTT7=
PLAYORDER=
